<svg xmlns="http://www.w3.org/2000/svg" viewBox="0 0 15 12.93"><defs><style>.cls-1{fill:#231f20;}</style></defs><title>favicon</title><g id="Layer_2" data-name="Layer 2"><g id="Layer_1-2" data-name="Layer 1"><path class="cls-1" d="M2.44.26V12.67H3v.26H0V0H3V.26Z"/><path class="cls-1" d="M10.88,8.28l-.34,1a1.9,1.9,0,0,1-1.94,1.4,1.38,1.38,0,0,1-1.18-.48,1.38,1.38,0,0,1-.22-.83V9.12a2.07,2.07,0,0,1-2.06,1.55A1.5,1.5,0,0,1,3.46,9c0-2.64,2.44-5.73,4.35-5.73A.77.77,0,0,1,8.66,4l.17-.57a15.33,15.33,0,0,0,2.45-.21L9.45,9.32a1.29,1.29,0,0,0-.06.33c0,.18.1.24.22.24s.44-.09.73-.85l.28-.76ZM7.46,8,8.52,4.49a1.48,1.48,0,0,0,0-.2c0-.26-.09-.38-.25-.38C7.51,3.91,6,6.57,6,9c0,.52.07.72.31.72S7,9.39,7.46,8Z"/><path class="cls-1" d="M15,12.93H12v-.26h.55V.26H12V0h3Z"/></g></g></svg>