# Rhino

mtllib brackets.mtl
usemtl Plaster
v 6.1408162117004395 0 0
v 6.1408162117004395 0 5.3978219032287598
v 6.1408162117004395 29.378108978271484 0
v 6.1408162117004395 29.378108978271484 5.3978219032287598
v 6.1408162117004395 29.378108978271484 0
v 6.1408162117004395 29.378108978271484 5.3978219032287598
v -0.66190177202224731 29.378108978271484 0
v -0.66190177202224731 29.378108978271484 5.3978219032287598
v -0.66190177202224731 29.378108978271484 0
v -0.66190177202224731 29.378108978271484 5.3978219032287598
v -0.66190177202224731 28.791149139404297 0
v -0.66190177202224731 28.791149139404297 5.3978219032287598
v -0.66190177202224731 28.791149139404297 0
v -0.66190177202224731 28.791149139404297 5.3978219032287598
v 0.60232019424438477 28.791149139404297 0
v 0.60232019424438477 28.791149139404297 5.3978219032287598
v 0.60232019424438477 28.791149139404297 0
v 0.60232019424438477 28.791149139404297 5.3978219032287598
v 0.60232019424438477 0.58696019649505615 0
v 0.60232019424438477 0.58696019649505615 5.3978219032287598
v 0.60232019424438477 0.58696019649505615 0
v 0.60232019424438477 0.58696019649505615 5.3978219032287598
v -0.66190177202224731 0.58696019649505615 0
v -0.66190177202224731 0.58696019649505615 5.3978219032287598
v -0.66190177202224731 0.58696019649505615 0
v -0.66190177202224731 0.58696019649505615 5.3978219032287598
v -0.66190177202224731 0 0
v -0.66190177202224731 0 5.3978219032287598
v -0.66190177202224731 0 0
v -0.66190177202224731 0 5.3978219032287598
v 6.1408162117004395 0 0
v 6.1408162117004395 0 5.3978219032287598
v 6.1408162117004395 0 0
v 6.1408162117004395 29.378108978271484 0
v -0.66190177202224731 29.378108978271484 0
v -0.66190177202224731 28.791149139404297 0
v 0.60232019424438477 28.791149139404297 0
v 0.60232019424438477 0.58696019649505615 0
v -0.66190177202224731 0.58696019649505615 0
v -0.66190177202224731 0 0
v 6.1408162117004395 0 5.3978219032287598
v 6.1408162117004395 29.378108978271484 5.3978219032287598
v -0.66190177202224731 29.378108978271484 5.3978219032287598
v -0.66190177202224731 28.791149139404297 5.3978219032287598
v 0.60232019424438477 28.791149139404297 5.3978219032287598
v 0.60232019424438477 0.58696019649505615 5.3978219032287598
v -0.66190177202224731 0.58696019649505615 5.3978219032287598
v -0.66190177202224731 0 5.3978219032287598
vt 0 0
vt 0 0.64202320575714111
vt 0.125 0
vt 0.125 0.64202320575714111
vt 0.125 0
vt 0.125 0.64202320575714111
vt 0.25 0
vt 0.25 0.64202320575714111
vt 0.25 0
vt 0.25 0.64202320575714111
vt 0.375 0
vt 0.375 0.64202320575714111
vt 0.375 0
vt 0.375 0.64202320575714111
vt 0.5 0
vt 0.5 0.64202320575714111
vt 0.5 0
vt 0.5 0.64202320575714111
vt 0.625 0
vt 0.625 0.64202320575714111
vt 0.625 0
vt 0.625 0.64202320575714111
vt 0.75 0
vt 0.75 0.64202320575714111
vt 0.75 0
vt 0.75 0.64202320575714111
vt 0.875 0
vt 0.875 0.64202320575714111
vt 0.875 0
vt 0.875 0.64202320575714111
vt 1 0
vt 1 0.64202320575714111
vt 0.39228296279907227 0.64202380180358887
vt 0 0.64202380180358887
vt 0 1
vt 0.0078376205638051033 1
vt 0.0078376205638051033 0.93347346782684326
vt 0.38444533944129944 0.93347346782684326
vt 0.38444533944129944 1
vt 0.39228296279907227 1
vt 0.39228296279907227 1
vt 0 1
vt 0 0.64202380180358887
vt 0.0078376205638051033 0.64202380180358887
vt 0.0078376205638051033 0.70855039358139038
vt 0.38444533944129944 0.70855039358139038
vt 0.38444533944129944 0.64202380180358887
vt 0.39228296279907227 0.64202380180358887
vn 1 0 0
vn 1 0 0
vn 1 0 0
vn 1 0 0
vn 0 1 0
vn 0 1 0
vn 0 1 0
vn 0 1 0
vn -1 0 0
vn -1 0 0
vn -1 0 0
vn -1 0 0
vn 0 -1 0
vn 0 -1 0
vn 0 -1 0
vn 0 -1 0
vn -1 0 0
vn -1 0 0
vn -1 0 0
vn -1 0 0
vn 0 1 0
vn 0 1 0
vn 0 1 0
vn 0 1 0
vn -1 0 0
vn -1 0 0
vn -1 0 0
vn -1 0 0
vn 0 -1 0
vn 0 -1 0
vn 0 -1 0
vn 0 -1 0
vn 0 0 -1
vn 0 0 -1
vn 0 0 -1
vn 0 0 -1
vn 0 0 -1
vn 0 0 -1
vn 0 0 -1
vn 0 0 -1
vn 0 0 1
vn 0 0 1
vn 0 0 1
vn 0 0 1
vn 0 0 1
vn 0 0 1
vn 0 0 1
vn 0 0 1
f 40/40/40 39/39/39 38/38/38 37/37/37 36/36/36 35/35/35 34/34/34 33/33/33
f 46/46/46 47/47/47 48/48/48 41/41/41 42/42/42 43/43/43 44/44/44 45/45/45
f 1/1/1 3/3/3 4/4/4 2/2/2
f 5/5/5 7/7/7 8/8/8 6/6/6
f 9/9/9 11/11/11 12/12/12 10/10/10
f 13/13/13 15/15/15 16/16/16 14/14/14
f 17/17/17 19/19/19 20/20/20 18/18/18
f 21/21/21 23/23/23 24/24/24 22/22/22
f 25/25/25 27/27/27 28/28/28 26/26/26
f 29/29/29 31/31/31 32/32/32 30/30/30
usemtl Plaster
v -24.05143928527832 28.791149139404297 0
v -24.05143928527832 28.791149139404297 5.3978219032287598
v -22.78721809387207 28.791149139404297 0
v -22.78721809387207 28.791149139404297 5.3978219032287598
v -22.78721809387207 28.791149139404297 0
v -22.78721809387207 28.791149139404297 5.3978219032287598
v -22.78721809387207 29.378108978271484 0
v -22.78721809387207 29.378108978271484 5.3978219032287598
v -22.78721809387207 29.378108978271484 0
v -22.78721809387207 29.378108978271484 5.3978219032287598
v -29.589935302734375 29.378108978271484 0
v -29.589935302734375 29.378108978271484 5.3978219032287598
v -29.589935302734375 29.378108978271484 0
v -29.589935302734375 29.378108978271484 5.3978219032287598
v -29.589935302734375 0 0
v -29.589935302734375 0 5.3978219032287598
v -29.589935302734375 0 0
v -29.589935302734375 0 5.3978219032287598
v -22.78721809387207 0 0
v -22.78721809387207 0 5.3978219032287598
v -22.78721809387207 0 0
v -22.78721809387207 0 5.3978219032287598
v -22.78721809387207 0.58696019649505615 0
v -22.78721809387207 0.58696019649505615 5.3978219032287598
v -22.78721809387207 0.58696019649505615 0
v -22.78721809387207 0.58696019649505615 5.3978219032287598
v -24.05143928527832 0.58696019649505615 0
v -24.05143928527832 0.58696019649505615 5.3978219032287598
v -24.05143928527832 0.58696019649505615 0
v -24.05143928527832 0.58696019649505615 5.3978219032287598
v -24.05143928527832 28.791149139404297 0
v -24.05143928527832 28.791149139404297 5.3978219032287598
v -24.05143928527832 28.791149139404297 0
v -22.78721809387207 28.791149139404297 0
v -22.78721809387207 29.378108978271484 0
v -29.589935302734375 29.378108978271484 0
v -29.589935302734375 0 0
v -22.78721809387207 0 0
v -22.78721809387207 0.58696019649505615 0
v -24.05143928527832 0.58696019649505615 0
v -24.05143928527832 28.791149139404297 5.3978219032287598
v -22.78721809387207 28.791149139404297 5.3978219032287598
v -22.78721809387207 29.378108978271484 5.3978219032287598
v -29.589935302734375 29.378108978271484 5.3978219032287598
v -29.589935302734375 0 5.3978219032287598
v -22.78721809387207 0 5.3978219032287598
v -22.78721809387207 0.58696019649505615 5.3978219032287598
v -24.05143928527832 0.58696019649505615 5.3978219032287598
vt 0 0
vt 0 0.64202320575714111
vt 0.125 0
vt 0.125 0.64202320575714111
vt 0.125 0
vt 0.125 0.64202320575714111
vt 0.25 0
vt 0.25 0.64202320575714111
vt 0.25 0
vt 0.25 0.64202320575714111
vt 0.375 0
vt 0.375 0.64202320575714111
vt 0.375 0
vt 0.375 0.64202320575714111
vt 0.5 0
vt 0.5 0.64202320575714111
vt 0.5 0
vt 0.5 0.64202320575714111
vt 0.625 0
vt 0.625 0.64202320575714111
vt 0.625 0
vt 0.625 0.64202320575714111
vt 0.75 0
vt 0.75 0.64202320575714111
vt 0.75 0
vt 0.75 0.64202320575714111
vt 0.875 0
vt 0.875 0.64202320575714111
vt 0.875 0
vt 0.875 0.64202320575714111
vt 1 0
vt 1 0.64202320575714111
vt 0.0078376205638051033 0.70855039358139038
vt 0.0078376205638051033 0.64202380180358887
vt 0 0.64202380180358887
vt 0 1
vt 0.39228296279907227 1
vt 0.39228296279907227 0.64202380180358887
vt 0.38444533944129944 0.64202380180358887
vt 0.38444533944129944 0.70855039358139038
vt 0.0078376205638051033 0.93347346782684326
vt 0.0078376205638051033 1
vt 0 1
vt 0 0.64202380180358887
vt 0.39228296279907227 0.64202380180358887
vt 0.39228296279907227 1
vt 0.38444533944129944 1
vt 0.38444533944129944 0.93347346782684326
vn 0 -1 0
vn 0 -1 0
vn 0 -1 0
vn 0 -1 0
vn 1 0 0
vn 1 0 0
vn 1 0 0
vn 1 0 0
vn 0 1 0
vn 0 1 0
vn 0 1 0
vn 0 1 0
vn -1 0 0
vn -1 0 0
vn -1 0 0
vn -1 0 0
vn 0 -1 0
vn 0 -1 0
vn 0 -1 0
vn 0 -1 0
vn 1 0 0
vn 1 0 0
vn 1 0 0
vn 1 0 0
vn 0 1 0
vn 0 1 0
vn 0 1 0
vn 0 1 0
vn 1 0 0
vn 1 0 0
vn 1 0 0
vn 1 0 0
vn 0 0 -1
vn 0 0 -1
vn 0 0 -1
vn 0 0 -1
vn 0 0 -1
vn 0 0 -1
vn 0 0 -1
vn 0 0 -1
vn 0 0 1
vn 0 0 1
vn 0 0 1
vn 0 0 1
vn 0 0 1
vn 0 0 1
vn 0 0 1
vn 0 0 1
f 85/85/85 84/84/84 83/83/83 82/82/82 81/81/81 88/88/88 87/87/87 86/86/86
f 92/92/92 93/93/93 94/94/94 95/95/95 96/96/96 89/89/89 90/90/90 91/91/91
f 49/49/49 51/51/51 52/52/52 50/50/50
f 53/53/53 55/55/55 56/56/56 54/54/54
f 57/57/57 59/59/59 60/60/60 58/58/58
f 61/61/61 63/63/63 64/64/64 62/62/62
f 65/65/65 67/67/67 68/68/68 66/66/66
f 69/69/69 71/71/71 72/72/72 70/70/70
f 73/73/73 75/75/75 76/76/76 74/74/74
f 77/77/77 79/79/79 80/80/80 78/78/78
