<svg xmlns="http://www.w3.org/2000/svg" viewBox="0 0 82 66.3"><defs><style>.cls-1{fill:#f2f2f2;}</style></defs><title>logosvg</title><g id="Layer_2" data-name="Layer 2"><g id="Layer_2-2" data-name="Layer 2"><polygon class="cls-1" points="12.29 3.94 12.29 62.35 16.1 62.35 16.1 66.3 0 66.3 0 0 16.1 0 16.1 3.94 12.29 3.94"/><path class="cls-1" d="M58.41,47.39c-.12.36-.25.72-.39,1.07s-.26.64-.4.95-.25.55-.38.82-.19.38-.3.57-.23.42-.36.62-.23.36-.36.53-.22.29-.34.42a2.58,2.58,0,0,1-.32.34,3.71,3.71,0,0,1-.29.27l-.27.19-.25.13-.22.09-.2,0-.2,0h-.25l-.07,0h-.08v0l0,0,0-.06a.19.19,0,0,1,0-.08.36.36,0,0,1,0-.1.59.59,0,0,1,0-.13.76.76,0,0,1,0-.15,1.2,1.2,0,0,1,0-.19,2.18,2.18,0,0,1,0-.25l0-.27c0-.1,0-.2,0-.3s.07-.39.12-.58.11-.47.18-.71L65.83,10.18,64,10.55a57.92,57.92,0,0,1-5.75.85c-2,.2-4.2.31-6.61.35l-.83,0-.43,1.54-.1-.15c-.1-.15-.2-.29-.31-.43s-.25-.29-.38-.43a5.22,5.22,0,0,0-.43-.39,4.83,4.83,0,0,0-.45-.34,4.94,4.94,0,0,0-.49-.3c-.17-.08-.34-.17-.52-.24l-.53-.19c-.18-.06-.37-.1-.56-.15l-.57-.09a5.61,5.61,0,0,0-.59-.06h-.72c-.4,0-.81,0-1.21.08s-.81.11-1.21.19-.81.19-1.21.3-.8.25-1.2.4a19.48,19.48,0,0,0-2.29,1q-.6.32-1.17.66c-.39.24-.77.48-1.15.74-.78.53-1.53,1.1-2.26,1.7s-1.48,1.28-2.18,2-1.42,1.44-2.08,2.2-1.35,1.58-2,2.41-1.26,1.7-1.85,2.58-1.16,1.8-1.7,2.73-1.06,1.88-1.54,2.84-.94,1.94-1.36,2.93c-.21.49-.41,1-.61,1.48s-.37,1-.55,1.5-.34,1-.5,1.5-.3,1-.44,1.51q-.41,1.49-.69,3c-.1.49-.18,1-.25,1.48s-.14,1-.19,1.49-.08,1-.11,1.46,0,1,0,1.45c0,.2,0,.4,0,.6s0,.4,0,.6,0,.39,0,.58l.06.57c0,.37.1.74.17,1.11s.16.7.25,1,.2.67.32,1,.26.63.4.94.31.6.48.88a8,8,0,0,0,.57.82A9.06,9.06,0,0,0,20,57a8.08,8.08,0,0,0,1.52,1.25,7.61,7.61,0,0,0,.87.51,9.88,9.88,0,0,0,.94.41c.33.12.67.23,1,.32s.71.17,1.07.24.76.11,1.14.14.8.05,1.2.05h.53l.52,0c.35,0,.69-.06,1-.11s.68-.11,1-.19.68-.17,1-.27.67-.23,1-.36.66-.29,1-.45.65-.35,1-.54.63-.41.94-.63.62-.47.92-.73.61-.54.9-.82.59-.61.87-.92.58-.67.85-1,.51-.66.75-1c.13-.18.26-.37.38-.56,0,.25,0,.49.06.74a9.38,9.38,0,0,0,.2,1.18c0,.2.1.39.16.59l.09.28c0,.09.07.19.11.28l.12.27.12.27c0,.09.1.18.14.27l.15.25c.06.09.11.18.17.26l0,0,0,0,.06.1.14.18a6.91,6.91,0,0,0,1.31,1.26,8.09,8.09,0,0,0,.79.5,8.26,8.26,0,0,0,.85.4,7.28,7.28,0,0,0,.93.32c.32.09.65.16,1,.22s.7.11,1,.14S48.61,60,49,60a13.58,13.58,0,0,0,1.56-.08,12.88,12.88,0,0,0,1.63-.27c.33-.08.66-.17,1-.28s.55-.19.82-.3.55-.24.82-.38a8.94,8.94,0,0,0,.8-.44c.27-.17.53-.35.79-.53s.52-.4.76-.61.5-.46.74-.7.48-.51.71-.78.46-.58.67-.88.43-.63.63-1,.41-.71.59-1.07.37-.77.54-1.16.35-.85.5-1.28q1.32-3.9,2.66-7.82h-4C59.61,44.08,59,45.73,58.41,47.39Zm-10-28c0,.14,0,.27,0,.4l0,.38,0,.37q-1.87,6.72-3.74,13.44c-.25.93-.52,1.85-.81,2.77s-.57,1.73-.88,2.59-.61,1.61-1,2.41c-.17.43-.36.85-.55,1.27-.31.71-.65,1.41-1,2.1s-.67,1.27-1,1.89-.68,1.11-1,1.65c-.17.25-.34.5-.52.74s-.33.46-.51.68-.33.41-.5.61-.33.37-.5.55-.31.32-.48.48L35.5,52c-.15.12-.29.24-.45.35a4.38,4.38,0,0,1-.42.28,2.42,2.42,0,0,1-.39.21L33.9,53l-.31.08-.26,0h-.22l-.08,0L33,53l-.05,0,0,0,0,0-.05-.05,0,0-.06-.07-.06-.09-.06-.12a1,1,0,0,1-.09-.21,2.65,2.65,0,0,1-.12-.37l-.06-.23c0-.09,0-.17,0-.25s-.06-.39-.08-.58-.05-.46-.06-.69,0-.52,0-.78,0-.29,0-.43v-.22c0-.28,0-.55,0-.83,0-.61,0-1.23.09-1.84s.09-1.24.16-1.86c.14-1.25.34-2.5.57-3.74s.53-2.49.85-3.72.69-2.42,1.09-3.62.82-2.32,1.28-3.45.92-2.17,1.44-3.23c.24-.5.49-1,.76-1.5s.51-.95.78-1.42.52-.89.8-1.33.53-.82.8-1.22.53-.75.81-1.12.53-.67.81-1,.59-.67.9-1,.5-.48.77-.71.24-.2.37-.29l.36-.26.34-.23.33-.18.32-.14.24-.09.27-.08.26,0h.23a1.1,1.1,0,0,1,.26,0l.22.05.2.08a.66.66,0,0,1,.17.12.8.8,0,0,1,.17.15,1.56,1.56,0,0,1,.16.2,1.35,1.35,0,0,1,.15.26,2.22,2.22,0,0,1,.14.32,2.91,2.91,0,0,1,.12.39c0,.1,0,.2.07.3s.06.32.08.48,0,.37,0,.55a2.81,2.81,0,0,1,0,.29v.2Z"/><polygon class="cls-1" points="82 66.3 65.9 66.3 65.9 62.35 69.71 62.35 69.71 3.94 65.9 3.94 65.9 0 82 0 82 66.3"/></g></g></svg>